<svg id="Layer_1" data-name="Layer 1" xmlns="http://www.w3.org/2000/svg" xmlns:xlink="http://www.w3.org/1999/xlink" viewBox="0 0 306.73 243.37"><defs><style>.cls-1{font-size:79.18px;fill:#006eac;font-family:HelveticaLTStd-BoldCondObl, HelveticaLTStd BoldCondObl;font-weight:700;font-style:oblique;}.cls-2{letter-spacing:-0.01em;}.cls-3{letter-spacing:0.01em;}.cls-4{letter-spacing:0.06em;}.cls-5{letter-spacing:-0.01em;}.cls-6{letter-spacing:0em;}.cls-7{letter-spacing:0em;}.cls-8{letter-spacing:0em;}.cls-9{letter-spacing:0em;}.cls-10{letter-spacing:-0.01em;}.cls-11,.cls-12{fill-rule:evenodd;}.cls-11{fill:url(#linear-gradient);}.cls-12{fill:url(#linear-gradient-2);}.cls-13{fill:#feec3f;}.cls-14{fill:#fec708;}.cls-15{fill:#f4970e;}.cls-16,.cls-17{fill:none;stroke-miterlimit:10;}.cls-16{stroke:url(#linear-gradient-3);}.cls-17{stroke:url(#linear-gradient-4);}</style><linearGradient id="linear-gradient" x1="448.08" y1="200.58" x2="455.75" y2="357.36" gradientUnits="userSpaceOnUse"><stop offset="0" stop-color="#b7183f"/><stop offset="0.12" stop-color="#b31c44"/><stop offset="0.27" stop-color="#a72652"/><stop offset="0.42" stop-color="#943869"/><stop offset="0.51" stop-color="#84467c"/><stop offset="0.58" stop-color="#6d5185"/><stop offset="0.69" stop-color="#4f5f91"/><stop offset="0.8" stop-color="#3a699a"/><stop offset="0.9" stop-color="#2d6f9f"/><stop offset="1" stop-color="#2971a1"/></linearGradient><linearGradient id="linear-gradient-2" x1="451.82" y1="200.4" x2="459.49" y2="357.17" xlink:href="#linear-gradient"/><linearGradient id="linear-gradient-3" x1="2.96" y1="225.8" x2="305.49" y2="225.8" gradientUnits="userSpaceOnUse"><stop offset="0" stop-color="#feec3f"/><stop offset="0.99" stop-color="#f4970e"/></linearGradient><linearGradient id="linear-gradient-4" x1="115.71" y1="673.47" x2="204.19" y2="673.47" gradientTransform="matrix(0.21, -0.98, 0.98, 0.21, -394.84, 217.9)" xlink:href="#linear-gradient-3"/></defs><text class="cls-1" transform="translate(44.82 141.22)"><tspan class="cls-2">A</tspan><tspan class="cls-3" x="47.51" y="0">c</tspan><tspan x="84" y="0">t </tspan><tspan class="cls-4" x="127" y="0"> </tspan><tspan class="cls-5" x="148.53" y="0">v</tspan><tspan class="cls-6" x="185.82" y="0">e</tspan></text><text class="cls-1" transform="translate(0 213.24)"><tspan class="cls-7">R</tspan><tspan x="42.91" y="0">e</tspan><tspan class="cls-8" x="82.58" y="0">w</tspan><tspan class="cls-9" x="140.54" y="0">a</tspan><tspan class="cls-10" x="178.7" y="0">r</tspan><tspan x="203.8" y="0">ds</tspan></text><path class="cls-11" d="M422.72,209.63c25.4,29.44-3.4,58.46,57.81,49.38-43,23.09-45,35.31-23.12,76.18-51.53-43.72-31.55-65.82-29.73-92.23.61-8.87-.15-19.38-5-33.33" transform="translate(-262.2 -178.66)"/><path class="cls-12" d="M452.9,235.74a9.59,9.59,0,1,1-8.83,10.68,9.8,9.8,0,0,1,8.83-10.68" transform="translate(-262.2 -178.66)"/><path class="cls-13" d="M440.31,188a.12.12,0,0,0,0-.13.11.11,0,0,0-.13,0l-16.25,5a.25.25,0,0,1-.25-.09l-9.66-14a.11.11,0,0,0-.13,0,.11.11,0,0,0-.08.1l-.31,17a.21.21,0,0,1-.16.2l-16.27,4.88a.12.12,0,0,0-.08.11.12.12,0,0,0,.07.11l16.06,5.54a.23.23,0,0,1,.15.22l-.39,17a.12.12,0,0,0,.08.11.11.11,0,0,0,.12,0l10.24-13.56a.23.23,0,0,1,.25-.07l16,5.62a.12.12,0,0,0,.13,0,.11.11,0,0,0,0-.13L430,201.76a.23.23,0,0,1,0-.26Z" transform="translate(-262.2 -178.66)"/><path class="cls-14" d="M430,201.85a.19.19,0,0,0-.14-.09l-8.69-1.23a0,0,0,0,0-.06,0,.06.06,0,0,0,0,.07l18.14,14.58h0a0,0,0,0,0,0,0Z" transform="translate(-262.2 -178.66)"/><path class="cls-14" d="M439.48,188.12,424,192.83a.22.22,0,0,0-.13.12l-3.05,6.8a.09.09,0,0,0,0,.07.09.09,0,0,0,.07,0l18.59-11.63s0,0,0-.05Z" transform="translate(-262.2 -178.66)"/><path class="cls-13" d="M440,188.27s0,0,0,0L421,200.12a.06.06,0,0,0,0,.06.07.07,0,0,0,.05,0l8.8,1.25a.2.2,0,0,0,.2-.09l10-13.07A0,0,0,0,0,440,188.27Z" transform="translate(-262.2 -178.66)"/><path class="cls-13" d="M439.18,215.54,420.84,200.8s0,0-.06,0a.06.06,0,0,0,0,.07l2.77,9.17a.24.24,0,0,0,.13.15l15.49,5.42s0,0,0,0A0,0,0,0,0,439.18,215.54Z" transform="translate(-262.2 -178.66)"/><path class="cls-14" d="M420.06,200.87a0,0,0,0,0-.07,0l-6.55,5.84a.18.18,0,0,0-.07.15L413,223.11l0,0,0,0,7-22.19A0,0,0,0,0,420.06,200.87Z" transform="translate(-262.2 -178.66)"/><path class="cls-14" d="M419.81,200.06l-6.3-4a.2.2,0,0,0-.18,0l-15.48,4.64a.05.05,0,0,0,0,0s0,0,0,0l21.92-.61s.05,0,.05,0A0,0,0,0,0,419.81,200.06Z" transform="translate(-262.2 -178.66)"/><path class="cls-15" d="M423.58,192.67l-9.28-13.42h-.05s0,0,0,0l6.18,20.46a0,0,0,0,0,.05,0,.05.05,0,0,0,0,0l3.08-6.86A.22.22,0,0,0,423.58,192.67Z" transform="translate(-262.2 -178.66)"/><path class="cls-13" d="M420.43,200.9s-.05,0-.05,0l-7.1,22.43s0,0,0,0,0,0,0,0l9.89-13.09a.22.22,0,0,0,0-.19l-2.78-9.18A0,0,0,0,0,420.43,200.9Z" transform="translate(-262.2 -178.66)"/><path class="cls-15" d="M419.9,200.44l-22.34.62a0,0,0,0,0,0,0s0,0,0,0l15.53,5.36a.22.22,0,0,0,.22,0l6.64-5.91a.06.06,0,0,0,0-.1Z" transform="translate(-262.2 -178.66)"/><path class="cls-13" d="M414,179.36s0,0,0,0a0,0,0,0,0,0,0l-.3,16.31a.21.21,0,0,0,.1.19l6.36,4s.05,0,.07,0a.11.11,0,0,0,0-.06Z" transform="translate(-262.2 -178.66)"/><line class="cls-16" x1="2.96" y1="225.8" x2="305.49" y2="225.8"/><line class="cls-17" x1="288.03" y1="243.27" x2="306.24" y2="156.68"/></svg>